<?xml version="1.0" encoding="UTF-8"?>
<svg width="36px" height="36px" viewBox="0 0 36 36" version="1.1" xmlns="http://www.w3.org/2000/svg" xmlns:xlink="http://www.w3.org/1999/xlink">
    <!-- Generator: sketchtool 48.2 (47327) - http://www.bohemiancoding.com/sketch -->
    <title>E8F596BB-0264-4190-8B85-6D68347E6E36</title>
    <desc>Created with sketchtool.</desc>
    <defs>
        <linearGradient x1="-23.5027468%" y1="-631.704835%" x2="163.130597%" y2="529.714524%" id="linearGradient-1">
            <stop stop-color="#FF3593" offset="0%"></stop>
            <stop stop-color="#FF185A" offset="100%"></stop>
        </linearGradient>
    </defs>
    <g id="Symbols" stroke="none" stroke-width="1" fill="none" fill-rule="evenodd">
        <g id="appicon_red">
            <g id="appicon">
                <g>
                    <rect id="Rectangle-3" x="0" y="0" width="36" height="36"></rect>
                    <g id="Page-1" transform="translate(2.700000, 0.675000)" fill="url(#linearGradient-1)">
                        <path d="M21.5998875,24.568875 L6.2998875,24.568875 C5.3058375,24.568875 4.4998875,23.762925 4.4998875,22.768875 C4.4998875,21.774825 5.3058375,20.968875 6.2998875,20.968875 L21.5998875,20.968875 C22.5939375,20.968875 23.3998875,21.774825 23.3998875,22.768875 C23.3998875,23.762925 22.5939375,24.568875 21.5998875,24.568875" id="Fill-1"></path>
                        <path d="M9,15.08877 C7.757325,15.08877 6.75,14.08122 6.75,12.83877 L6.75,9.98037 C6.75,8.737695 7.757325,7.73037 9,7.73037 C10.242675,7.73037 11.25,8.737695 11.25,9.98037 L11.25,12.83877 C11.25,14.08122 10.242675,15.08877 9,15.08877" id="Fill-3"></path>
                        <path d="M2.25,18.37962 C1.007325,18.37962 0,17.37207 0,16.12962 L0,4.889745 C0,3.64707 1.007325,2.639745 2.25,2.639745 C3.492675,2.639745 4.5,3.64707 4.5,4.889745 L4.5,16.12962 C4.5,17.37207 3.492675,18.37962 2.25,18.37962" id="Fill-5"></path>
                        <path d="M29.2498875,13.40127 C28.0074375,13.40127 26.9998875,12.39372 26.9998875,11.15127 L26.9998875,8.96787 C26.9998875,7.725195 28.0074375,6.71787 29.2498875,6.71787 C30.4923375,6.71787 31.4998875,7.725195 31.4998875,8.96787 L31.4998875,11.15127 C31.4998875,12.39372 30.4923375,13.40127 29.2498875,13.40127" id="Fill-7"></path>
                        <path d="M22.4998875,18.994185 C21.2574375,18.994185 20.2498875,17.986635 20.2498875,16.744185 L20.2498875,2.24991 C20.2498875,1.00746 21.2574375,-9e-05 22.4998875,-9e-05 C23.7423375,-9e-05 24.7498875,1.00746 24.7498875,2.24991 L24.7498875,16.744185 C24.7498875,17.986635 23.7423375,18.994185 22.4998875,18.994185" id="Fill-9"></path>
                        <path d="M15.7498875,17.7577875 C14.5074375,17.7577875 13.4998875,16.7502375 13.4998875,15.5077875 L13.4998875,6.6362625 C13.4998875,5.3938125 14.5074375,4.3862625 15.7498875,4.3862625 C16.9923375,4.3862625 17.9998875,5.3938125 17.9998875,6.6362625 L17.9998875,15.5077875 C17.9998875,16.7502375 16.9923375,17.7577875 15.7498875,17.7577875" id="Fill-12"></path>
                        <path d="M20.4748875,29.293875 L7.4248875,29.293875 C6.4308375,29.293875 5.6248875,28.487925 5.6248875,27.493875 C5.6248875,26.499825 6.4308375,25.693875 7.4248875,25.693875 L20.4748875,25.693875 C21.4689375,25.693875 22.2748875,26.499825 22.2748875,27.493875 C22.2748875,28.487925 21.4689375,29.293875 20.4748875,29.293875" id="Fill-14"></path>
                        <path d="M26.0998875,34.018875 L7.4248875,34.018875 C6.4308375,34.018875 5.6248875,33.212925 5.6248875,32.218875 C5.6248875,31.224825 6.4308375,30.418875 7.4248875,30.418875 L26.0998875,30.418875 C27.0939375,30.418875 27.8998875,31.224825 27.8998875,32.218875 C27.8998875,33.212925 27.0939375,34.018875 26.0998875,34.018875" id="Fill-16"></path>
                    </g>
                </g>
            </g>
        </g>
    </g>
</svg>