<?xml version="1.0" encoding="UTF-8"?>
<svg width="160px" height="160px" viewBox="0 0 160 160" version="1.1" xmlns="http://www.w3.org/2000/svg" xmlns:xlink="http://www.w3.org/1999/xlink">
    <!-- Generator: sketchtool 48.2 (47327) - http://www.bohemiancoding.com/sketch -->
    <title>531C8DE7-3A5F-4EC6-B005-4B8EB644D2AD</title>
    <desc>Created with sketchtool.</desc>
    <defs></defs>
    <g id="Symbols" stroke="none" stroke-width="1" fill="none" fill-rule="evenodd">
        <g id="appicon_white">
            <g id="appicon">
                <rect id="Rectangle-3" x="0" y="0" width="160" height="160"></rect>
                <g id="Page-1" transform="translate(42.000000, 8.000000)" fill="#FFFFFF">
                    <path d="M54.1711464,61.7813816 L15.7997179,61.7813816 C13.3067036,61.7813816 11.2854321,59.7547237 11.2854321,57.2550658 C11.2854321,54.7554079 13.3067036,52.72875 15.7997179,52.72875 L54.1711464,52.72875 C56.6641607,52.72875 58.6854321,54.7554079 58.6854321,57.2550658 C58.6854321,59.7547237 56.6641607,61.7813816 54.1711464,61.7813816" id="Fill-1"></path>
                    <path d="M22.5714286,37.9425211 C19.4548786,37.9425211 16.9285714,35.4089158 16.9285714,32.2846263 L16.9285714,25.0968368 C16.9285714,21.9719816 19.4548786,19.4389421 22.5714286,19.4389421 C25.6879786,19.4389421 28.2142857,21.9719816 28.2142857,25.0968368 L28.2142857,32.2846263 C28.2142857,35.4089158 25.6879786,37.9425211 22.5714286,37.9425211" id="Fill-3"></path>
                    <path d="M5.64285714,46.2177579 C2.52630714,46.2177579 0,43.6841526 0,40.5598632 L0,12.29585 C0,9.17099474 2.52630714,6.63795526 5.64285714,6.63795526 C8.75940714,6.63795526 11.2857143,9.17099474 11.2857143,12.29585 L11.2857143,40.5598632 C11.2857143,43.6841526 8.75940714,46.2177579 5.64285714,46.2177579" id="Fill-5"></path>
                    <path d="M73.3568607,33.6991 C70.240875,33.6991 67.7140036,31.1654947 67.7140036,28.0412053 L67.7140036,22.5507842 C67.7140036,19.4259289 70.240875,16.8928895 73.3568607,16.8928895 C76.4728464,16.8928895 78.9997179,19.4259289 78.9997179,22.5507842 L78.9997179,28.0412053 C78.9997179,31.1654947 76.4728464,33.6991 73.3568607,33.6991" id="Fill-7"></path>
                    <path d="M56.4282893,47.7631553 C53.3123036,47.7631553 50.7854321,45.22955 50.7854321,42.1052605 L50.7854321,5.65766842 C50.7854321,2.53337895 53.3123036,-0.000226315789 56.4282893,-0.000226315789 C59.544275,-0.000226315789 62.0711464,2.53337895 62.0711464,5.65766842 L62.0711464,42.1052605 C62.0711464,45.22955 59.544275,47.7631553 56.4282893,47.7631553" id="Fill-9"></path>
                    <path d="M39.4997179,44.6540855 C36.3837321,44.6540855 33.8568607,42.1204803 33.8568607,38.9961908 L33.8568607,16.6876776 C33.8568607,13.5633882 36.3837321,11.0297829 39.4997179,11.0297829 C42.6157036,11.0297829 45.142575,13.5633882 45.142575,16.6876776 L45.142575,38.9961908 C45.142575,42.1204803 42.6157036,44.6540855 39.4997179,44.6540855" id="Fill-12"></path>
                    <path d="M51.3497179,73.6629605 L18.6211464,73.6629605 C16.1281321,73.6629605 14.1068607,71.6363026 14.1068607,69.1366447 C14.1068607,66.6369868 16.1281321,64.6103289 18.6211464,64.6103289 L51.3497179,64.6103289 C53.8427321,64.6103289 55.8640036,66.6369868 55.8640036,69.1366447 C55.8640036,71.6363026 53.8427321,73.6629605 51.3497179,73.6629605" id="Fill-14"></path>
                    <path d="M65.4568607,85.5445395 L18.6211464,85.5445395 C16.1281321,85.5445395 14.1068607,83.5178816 14.1068607,81.0182237 C14.1068607,78.5185658 16.1281321,76.4919079 18.6211464,76.4919079 L65.4568607,76.4919079 C67.949875,76.4919079 69.9711464,78.5185658 69.9711464,81.0182237 C69.9711464,83.5178816 67.949875,85.5445395 65.4568607,85.5445395" id="Fill-16"></path>
                </g>
                <path d="M51.18,144.748 L26.408,144.748 L26.408,146.2 L51.928,146.2 C53.38,146.2 54.48,147.3 54.48,148.752 C54.48,150.204 53.38,151.304 51.928,151.304 L21.04,151.304 C19.588,151.304 18.488,150.204 18.488,148.752 L18.488,142.328 C18.488,141.008 19.588,139.908 20.908,139.908 L45.68,139.908 L45.68,138.5 L20.776,138.5 C19.368,138.5 18.268,137.4 18.268,135.992 C18.268,134.584 19.368,133.484 20.776,133.484 L51.092,133.484 C52.5,133.484 53.6,134.584 53.6,135.992 L53.6,142.328 C53.6,143.692 52.5,144.748 51.18,144.748 Z M37.144,130.932 L19.676,130.932 C18.004,130.932 16.64,129.568 16.64,127.896 L16.64,114.74 C16.64,112.54 18.356,110.868 20.512,110.868 C22.668,110.868 24.384,112.54 24.384,114.74 L24.384,115.752 L32.436,115.752 L32.436,114.74 C32.436,112.54 34.152,110.868 36.308,110.868 C38.464,110.868 40.18,112.54 40.18,114.74 L40.18,127.896 C40.18,129.568 38.816,130.932 37.144,130.932 Z M45.68,128.424 L45.68,113.948 C45.68,111.704 47.44,109.988 49.64,109.988 C51.84,109.988 53.6,111.704 53.6,113.948 L53.6,117.908 L55.976,117.908 C57.692,117.908 59.056,119.272 59.056,120.988 C59.056,122.704 57.692,124.068 55.976,124.068 L53.6,124.068 L53.6,128.424 C53.6,130.712 51.84,132.384 49.64,132.384 C47.44,132.384 45.68,130.712 45.68,128.424 Z M24.384,124.948 L32.436,124.948 L32.436,121.648 L24.384,121.648 L24.384,124.948 Z M98.7,132.208 C98.7,134.012 97.424,135.376 95.752,135.376 L64.292,135.376 C62.62,135.376 61.3,134.012 61.3,132.208 C61.3,130.404 62.62,129.04 64.292,129.04 L67.768,129.04 L67.152,122.528 C66.932,120.328 68.868,119.052 71.068,119.052 C73.268,119.052 74.764,120.328 74.984,122.528 L75.556,129.04 L84.488,129.04 L85.104,122.528 C85.324,120.328 86.82,119.052 89.02,119.052 C91.22,119.052 93.156,120.328 92.936,122.528 L92.232,129.04 L95.752,129.04 C97.424,129.04 98.7,130.404 98.7,132.208 Z M59.76,146.904 C59.76,145.1 61.3,143.604 63.104,143.604 L67.988,143.604 L67.988,139.996 C67.988,137.752 69.704,136.696 71.948,136.696 C74.192,136.696 75.908,137.752 75.908,139.996 L75.908,143.604 L84.092,143.604 L84.092,139.996 C84.092,137.752 85.808,136.696 88.052,136.696 C90.296,136.696 92.012,137.752 92.012,139.996 L92.012,143.604 L96.852,143.604 C98.744,143.604 100.24,145.1 100.24,146.904 C100.24,148.664 98.744,150.204 96.852,150.204 L63.104,150.204 C61.3,150.204 59.76,148.664 59.76,146.904 Z M96.192,117.952 L63.852,117.952 C62.18,117.952 60.86,116.544 60.86,114.74 C60.86,112.936 62.18,111.528 63.852,111.528 L96.192,111.528 C97.864,111.528 99.14,112.936 99.14,114.74 C99.14,116.544 97.864,117.952 96.192,117.952 Z M139.18,144.748 L114.408,144.748 L114.408,146.2 L139.928,146.2 C141.38,146.2 142.48,147.3 142.48,148.752 C142.48,150.204 141.38,151.304 139.928,151.304 L109.04,151.304 C107.588,151.304 106.488,150.204 106.488,148.752 L106.488,142.328 C106.488,141.008 107.588,139.908 108.908,139.908 L133.68,139.908 L133.68,138.5 L108.776,138.5 C107.368,138.5 106.268,137.4 106.268,135.992 C106.268,134.584 107.368,133.484 108.776,133.484 L139.092,133.484 C140.5,133.484 141.6,134.584 141.6,135.992 L141.6,142.328 C141.6,143.692 140.5,144.748 139.18,144.748 Z M127.476,131.108 L107.676,131.108 C106.004,131.108 104.64,129.744 104.64,128.072 L104.64,114.3 C104.64,112.232 106.224,110.868 108.248,110.868 C110.228,110.868 111.812,112.232 111.812,114.3 L111.812,116.104 L114.144,116.104 L114.144,114.564 C114.144,112.584 115.684,111.308 117.62,111.308 C119.512,111.308 121.008,112.584 121.008,114.564 L121.008,116.104 L123.34,116.104 L123.34,114.3 C123.34,112.232 124.924,110.868 126.948,110.868 C128.928,110.868 130.512,112.232 130.512,114.3 L130.512,128.072 C130.512,129.744 129.148,131.108 127.476,131.108 Z M133.9,128.556 L133.9,113.816 C133.9,111.66 135.616,109.988 137.772,109.988 C139.884,109.988 141.6,111.66 141.6,113.816 L141.6,117.908 L143.976,117.908 C145.692,117.908 147.056,119.272 147.056,120.988 C147.056,122.704 145.692,124.068 143.976,124.068 L141.6,124.068 L141.6,128.556 C141.6,130.756 139.884,132.384 137.772,132.384 C135.616,132.384 133.9,130.756 133.9,128.556 Z M111.812,121.472 L111.812,125.564 L114.144,125.564 L114.144,121.472 L111.812,121.472 Z M121.008,125.564 L123.34,125.564 L123.34,121.472 L121.008,121.472 L121.008,125.564 Z" id="발표빨" fill="#FFFFFF"></path>
            </g>
        </g>
    </g>
</svg>