<?xml version="1.0" encoding="UTF-8"?>
<svg width="24px" height="24px" viewBox="0 0 24 24" version="1.1" xmlns="http://www.w3.org/2000/svg" xmlns:xlink="http://www.w3.org/1999/xlink">
    <!-- Generator: sketchtool 48.2 (47327) - http://www.bohemiancoding.com/sketch -->
    <title>4587E79C-3525-47E0-9C46-DE5A8D0EE712</title>
    <desc>Created with sketchtool.</desc>
    <defs></defs>
    <g id="Symbols" stroke="none" stroke-width="1" fill="none" fill-rule="evenodd">
        <g id="Icons/expand_delete">
            <rect id="Rectangle" stroke="#41414C" x="3.5" y="4.5" width="17" height="2" rx="1"></rect>
            <path d="M5.5,6.5 L5.5,20 C5.5,20.8284271 6.17157288,21.5 7,21.5 L17,21.5 C17.8284271,21.5 18.5,20.8284271 18.5,20 L18.5,6.5 L5.5,6.5 Z" id="Rectangle" stroke="#41414C"></path>
            <rect id="Rectangle-5" x="0" y="0" width="24" height="24"></rect>
            <path d="M8.5,4.5 L15.5,4.5 L15.5,4 C15.5,3.17157288 14.8284271,2.5 14,2.5 L10,2.5 C9.17157288,2.5 8.5,3.17157288 8.5,4 L8.5,4.5 Z" id="Rectangle" stroke="#41414C"></path>
            <path d="M8.5,9.625 L8.5,18.4638348" id="Line" stroke="#41414C" stroke-linecap="round"></path>
            <path d="M12,9.625 L12,18.4638348" id="Line" stroke="#41414C" stroke-linecap="round"></path>
            <path d="M15.5,9.625 L15.5,18.4638348" id="Line" stroke="#41414C" stroke-linecap="round"></path>
        </g>
    </g>
</svg>