<?xml version="1.0" encoding="UTF-8"?>
<svg width="48px" height="48px" viewBox="0 0 48 48" version="1.1" xmlns="http://www.w3.org/2000/svg" xmlns:xlink="http://www.w3.org/1999/xlink">
    <!-- Generator: sketchtool 48.2 (47327) - http://www.bohemiancoding.com/sketch -->
    <title>62C0E371-CF58-410B-B930-1239E908B303</title>
    <desc>Created with sketchtool.</desc>
    <defs></defs>
    <g id="W002_myscript" stroke="none" stroke-width="1" fill="none" fill-rule="evenodd" transform="translate(-376.000000, -278.000000)">
        <g id="item01" transform="translate(250.000000, 250.000000)">
            <g id="ic_add" transform="translate(126.000000, 28.000000)">
                <circle id="Oval-2" fill="#FF185A" cx="24" cy="24" r="24"></circle>
                <path d="M24.34375,22.65625 L36.15625,22.65625 C36.6222403,22.65625 37,23.0340097 37,23.5 C37,23.9659903 36.6222403,24.34375 36.15625,24.34375 L24.34375,24.34375 L24.34375,36.15625 C24.34375,36.6222403 23.9659903,37 23.5,37 C23.0340097,37 22.65625,36.6222403 22.65625,36.15625 L22.65625,24.34375 L10.84375,24.34375 C10.3777597,24.34375 10,23.9659903 10,23.5 C10,23.0340097 10.3777597,22.65625 10.84375,22.65625 L22.65625,22.65625 L22.65625,10.84375 C22.65625,10.3777597 23.0340097,10 23.5,10 C23.9659903,10 24.34375,10.3777597 24.34375,10.84375 L24.34375,22.65625 Z" id="Combined-Shape" fill="#FFFFFF"></path>
            </g>
        </g>
    </g>
</svg>