<?xml version="1.0" encoding="UTF-8"?>
<svg width="62px" height="20px" viewBox="0 0 62 20" version="1.1" xmlns="http://www.w3.org/2000/svg" xmlns:xlink="http://www.w3.org/1999/xlink">
    <!-- Generator: sketchtool 48.2 (47327) - http://www.bohemiancoding.com/sketch -->
    <title>6AD889D7-EC70-45B8-A82B-BDC08C4F0C7B</title>
    <desc>Created with sketchtool.</desc>
    <defs></defs>
    <g id="W002_myscript" stroke="none" stroke-width="1" fill="none" fill-rule="evenodd" transform="translate(-88.000000, -26.000000)">
        <g id="header" fill="#FF185A">
            <path d="M104.420378,42.8264111 L92.6437247,42.8264111 L92.6437247,43.5292865 L104.775978,43.5292865 C105.466262,43.5292865 105.989204,44.0617678 105.989204,44.7646432 C105.989204,45.4675186 105.466262,46 104.775978,46 L90.0917679,46 C89.4014845,46 88.8785425,45.4675186 88.8785425,44.7646432 L88.8785425,41.6549521 C88.8785425,41.0159744 89.4014845,40.4834931 90.0290148,40.4834931 L101.805668,40.4834931 L101.805668,39.8019169 L89.9662618,39.8019169 C89.2968961,39.8019169 88.7739541,39.2694356 88.7739541,38.5878594 C88.7739541,37.9062833 89.2968961,37.3738019 89.9662618,37.3738019 L104.378543,37.3738019 C105.047908,37.3738019 105.57085,37.9062833 105.57085,38.5878594 L105.57085,41.6549521 C105.57085,42.315229 105.047908,42.8264111 104.420378,42.8264111 Z M97.7476383,36.1384452 L89.4433198,36.1384452 C88.648448,36.1384452 88,35.4781683 88,34.6687966 L88,28.3003195 C88,27.2353568 88.8157895,26.4259851 89.8407557,26.4259851 C90.865722,26.4259851 91.6815115,27.2353568 91.6815115,28.3003195 L91.6815115,28.7902023 L95.5094467,28.7902023 L95.5094467,28.3003195 C95.5094467,27.2353568 96.3252362,26.4259851 97.3502024,26.4259851 C98.3751687,26.4259851 99.1909582,27.2353568 99.1909582,28.3003195 L99.1909582,34.6687966 C99.1909582,35.4781683 98.5425101,36.1384452 97.7476383,36.1384452 Z M101.805668,34.9243876 L101.805668,27.9169329 C101.805668,26.8306709 102.642375,26 103.688259,26 C104.734143,26 105.57085,26.8306709 105.57085,27.9169329 L105.57085,29.8338658 L106.700405,29.8338658 C107.516194,29.8338658 108.164642,30.4941427 108.164642,31.3248136 C108.164642,32.1554846 107.516194,32.8157614 106.700405,32.8157614 L105.57085,32.8157614 L105.57085,34.9243876 C105.57085,36.0319489 104.734143,36.8413206 103.688259,36.8413206 C102.642375,36.8413206 101.805668,36.0319489 101.805668,34.9243876 Z M91.6815115,33.2417465 L95.5094467,33.2417465 L95.5094467,31.6443024 L91.6815115,31.6443024 L91.6815115,33.2417465 Z M127.011471,36.7561235 C127.011471,37.629393 126.404858,38.2896699 125.609987,38.2896699 L110.653846,38.2896699 C109.858974,38.2896699 109.231444,37.629393 109.231444,36.7561235 C109.231444,35.8828541 109.858974,35.2225772 110.653846,35.2225772 L112.306343,35.2225772 L112.013495,32.0702875 C111.908907,31.0053248 112.829285,30.3876464 113.875169,30.3876464 C114.921053,30.3876464 115.632254,31.0053248 115.736842,32.0702875 L116.008772,35.2225772 L120.255061,35.2225772 L120.547908,32.0702875 C120.652497,31.0053248 121.363698,30.3876464 122.409582,30.3876464 C123.455466,30.3876464 124.375843,31.0053248 124.271255,32.0702875 L123.936572,35.2225772 L125.609987,35.2225772 C126.404858,35.2225772 127.011471,35.8828541 127.011471,36.7561235 Z M108.499325,43.8700745 C108.499325,42.9968051 109.231444,42.2726305 110.089069,42.2726305 L112.410931,42.2726305 L112.410931,40.5260916 C112.410931,39.4398296 113.226721,38.9286475 114.293522,38.9286475 C115.360324,38.9286475 116.176113,39.4398296 116.176113,40.5260916 L116.176113,42.2726305 L120.066802,42.2726305 L120.066802,40.5260916 C120.066802,39.4398296 120.882591,38.9286475 121.949393,38.9286475 C123.016194,38.9286475 123.831984,39.4398296 123.831984,40.5260916 L123.831984,42.2726305 L126.132928,42.2726305 C127.032389,42.2726305 127.74359,42.9968051 127.74359,43.8700745 C127.74359,44.7220447 127.032389,45.4675186 126.132928,45.4675186 L110.089069,45.4675186 C109.231444,45.4675186 108.499325,44.7220447 108.499325,43.8700745 Z M125.819163,29.8551651 L110.444669,29.8551651 C109.649798,29.8551651 109.022267,29.1735889 109.022267,28.3003195 C109.022267,27.4270501 109.649798,26.7454739 110.444669,26.7454739 L125.819163,26.7454739 C126.614035,26.7454739 127.220648,27.4270501 127.220648,28.3003195 C127.220648,29.1735889 126.614035,29.8551651 125.819163,29.8551651 Z M146.255735,42.8264111 L134.479082,42.8264111 L134.479082,43.5292865 L146.611336,43.5292865 C147.301619,43.5292865 147.824561,44.0617678 147.824561,44.7646432 C147.824561,45.4675186 147.301619,46 146.611336,46 L131.927126,46 C131.236842,46 130.7139,45.4675186 130.7139,44.7646432 L130.7139,41.6549521 C130.7139,41.0159744 131.236842,40.4834931 131.864372,40.4834931 L143.641026,40.4834931 L143.641026,39.8019169 L131.801619,39.8019169 C131.132254,39.8019169 130.609312,39.2694356 130.609312,38.5878594 C130.609312,37.9062833 131.132254,37.3738019 131.801619,37.3738019 L146.2139,37.3738019 C146.883266,37.3738019 147.406208,37.9062833 147.406208,38.5878594 L147.406208,41.6549521 C147.406208,42.315229 146.883266,42.8264111 146.255735,42.8264111 Z M140.691633,36.2236422 L131.278677,36.2236422 C130.483806,36.2236422 129.835358,35.5633653 129.835358,34.7539936 L129.835358,28.0873269 C129.835358,27.086262 130.588394,26.4259851 131.550607,26.4259851 C132.491903,26.4259851 133.244939,27.086262 133.244939,28.0873269 L133.244939,28.9605964 L134.353576,28.9605964 L134.353576,28.2151225 C134.353576,27.256656 135.085695,26.6389776 136.006073,26.6389776 C136.905533,26.6389776 137.616734,27.256656 137.616734,28.2151225 L137.616734,28.9605964 L138.725371,28.9605964 L138.725371,28.0873269 C138.725371,27.086262 139.478408,26.4259851 140.440621,26.4259851 C141.381916,26.4259851 142.134953,27.086262 142.134953,28.0873269 L142.134953,34.7539936 C142.134953,35.5633653 141.486505,36.2236422 140.691633,36.2236422 Z M143.745614,34.9882854 L143.745614,27.8530351 C143.745614,26.8093717 144.561404,26 145.58637,26 C146.590418,26 147.406208,26.8093717 147.406208,27.8530351 L147.406208,29.8338658 L148.535762,29.8338658 C149.351552,29.8338658 150,30.4941427 150,31.3248136 C150,32.1554846 149.351552,32.8157614 148.535762,32.8157614 L147.406208,32.8157614 L147.406208,34.9882854 C147.406208,36.0532481 146.590418,36.8413206 145.58637,36.8413206 C144.561404,36.8413206 143.745614,36.0532481 143.745614,34.9882854 Z M133.244939,31.5591054 L133.244939,33.5399361 L134.353576,33.5399361 L134.353576,31.5591054 L133.244939,31.5591054 Z M137.616734,33.5399361 L138.725371,33.5399361 L138.725371,31.5591054 L137.616734,31.5591054 L137.616734,33.5399361 Z" id="ic_logo_type"></path>
        </g>
    </g>
</svg>